<svg id="icons" style="display: none;" version="1.1"><symbol id="icons-link" viewBox="0 0 32 32"><path d="M6 2h20v28l-10-6-10 6z"/></symbol><symbol id="icons-menu" viewBox="0 0 32 32"><path d="M3 8a3 3 0 0 0 6 0 3 3 0 0 0-6 0m9-2h16v4H12zM3 16a3 3 0 0 0 6 0 3 3 0 0 0-6 0m9-2h16v4H12zM3 24a3 3 0 0 0 6 0 3 3 0 0 0-6 0m9-2h16v4H12z"/></symbol><symbol id="icons-photo" viewBox="0 0 32 32"><path d="M0 4v24h32V4zm4 20l6-14 5 8 3-4 6 10zM25 7a4 4 0 0 1 0 8 4 4 0 0 1 0-8"/></symbol><symbol id="icons-post" viewBox="0 0 32 32"><path d="M4 2v28h24V10l-8-8z"/></symbol></svg>
