<svg style="display: none;" id="icons" xmlns="http://www.w3.org/2000/svg"><symbol id="icons-post" viewBox="0 0 32 32"><path d="M4 2v28h24V10l-8-8z"/></symbol><symbol id="icons-link" viewBox="0 0 32 32"><path d="M6 2h20v28l-10-6-10 6z"/></symbol><symbol id="icons-menu" viewBox="0 0 32 32"><path d="M3 8a3 3 0 006 0 3 3 0 00-6 0m9-2h16v4H12zM3 16a3 3 0 006 0 3 3 0 00-6 0m9-2h16v4H12zM3 24a3 3 0 006 0 3 3 0 00-6 0m9-2h16v4H12z"/></symbol><symbol id="icons-photo" viewBox="0 0 32 32"><path d="M0 4v24h32V4zm4 20l6-14 5 8 3-4 6 10zM25 7a4 4 0 010 8 4 4 0 010-8"/></symbol></svg>
